<svg xmlns="http://www.w3.org/2000/svg" viewBox="0 0 520 520" role="img" aria-labelledby="title desc">
  <title id="title">UPI QR placeholder</title>
  <desc id="desc">Demo QR code placeholder for donation page.</desc>
  <rect width="520" height="520" rx="24" fill="#ffffff"/>
  <rect x="20" y="20" width="480" height="480" rx="18" fill="#f4f7fb" stroke="#cbd7e5" stroke-width="4"/>
  <g fill="#0b2742">
    <rect x="60" y="60" width="120" height="120" rx="8"/>
    <rect x="88" y="88" width="64" height="64" rx="4" fill="#ffffff"/>
    <rect x="340" y="60" width="120" height="120" rx="8"/>
    <rect x="368" y="88" width="64" height="64" rx="4" fill="#ffffff"/>
    <rect x="60" y="340" width="120" height="120" rx="8"/>
    <rect x="88" y="368" width="64" height="64" rx="4" fill="#ffffff"/>
    <rect x="226" y="70" width="34" height="34"/>
    <rect x="272" y="70" width="34" height="80"/>
    <rect x="226" y="130" width="34" height="34"/>
    <rect x="214" y="214" width="34" height="34"/>
    <rect x="260" y="214" width="80" height="34"/>
    <rect x="386" y="214" width="34" height="34"/>
    <rect x="214" y="260" width="34" height="80"/>
    <rect x="306" y="260" width="34" height="34"/>
    <rect x="352" y="260" width="80" height="34"/>
    <rect x="260" y="352" width="34" height="80"/>
    <rect x="306" y="398" width="34" height="34"/>
    <rect x="352" y="340" width="34" height="34"/>
    <rect x="398" y="386" width="34" height="34"/>
    <rect x="214" y="398" width="34" height="34"/>
  </g>
  <text x="260" y="490" text-anchor="middle" font-family="Arial, sans-serif" font-size="22" fill="#637083">DEMO QR PLACEHOLDER</text>
</svg>
